# xmcd
#
# Track frame offsets:
#	150
#	15049
#	32706
#	48945
#	67212
#	80642
#	99800
#	112684
#	124571
#	138546
#	149956
#	163060
#
# Disc length: 2352 seconds
#
# Revision: 1
# Processed by: cddbd v1.5.1PL2 Copyright (c) Steve Scherf et al.
# Submitted via: audiograbber 1.83.01
#
DISCID=9c092e0c
DTITLE=The Positions - Bliss!
DYEAR=1900
DGENRE=
TTITLE0=Someday
TTITLE1=Back To Me
TTITLE2=Flowers And Trees
TTITLE3=Bliss!
TTITLE4=Think I Can Tell
TTITLE5=I Need You
TTITLE6=Things You Never Said
TTITLE7=It's Okay It's Alright
TTITLE8=Caught Up
TTITLE9=Summer Nights
TTITLE10=Forever...
TTITLE11=Good Times
EXTD=
EXTT0=
EXTT1=
EXTT2=
EXTT3=
EXTT4=
EXTT5=
EXTT6=
EXTT7=
EXTT8=
EXTT9=
EXTT10=
EXTT11=
PLAYORDER=
